<svg class="icon" width="45" height="45" viewBox="0 0 45 45" fill="none" xmlns="http://www.w3.org/2000/svg">
<path fill-rule="evenodd" clip-rule="evenodd" d="M40.3353 24.1813C39.4524 22.8172 37.8651 21.3313 35.9926 21.9356C34.1202 22.5399 34.1392 23.6139 32.2326 24.2386C30.3259 24.8633 29.828 23.3037 27.9609 23.3981C26.094 23.4926 25.629 23.974 24.7018 25.1477C23.7082 26.4054 23.8338 28.8897 24.0807 30.2859C24.3276 31.6821 25.1998 34.2804 27.2221 35.939C29.2444 37.5976 31.2151 38.2375 34.368 37.8668C37.521 37.496 39.701 35.3079 40.8335 33.3136C41.9659 31.3194 41.8769 30.2662 41.7879 28.5099C41.699 26.7535 41.2182 25.5453 40.3353 24.1813ZM27.2015 26.4379C27.4523 26.2967 27.8216 26.2276 28.1855 26.3943L28.2579 26.431C28.5251 26.5777 28.7366 26.812 28.904 27.0851C28.9874 27.0115 29.0746 26.9393 29.1653 26.8736C29.328 26.7558 29.58 26.5976 29.8925 26.5303L29.956 26.5183L29.9999 26.511C30.1506 26.4901 30.6138 26.4584 30.9877 26.8396C31.3929 27.2529 31.3255 27.7561 31.2726 27.9753L31.2524 28.0508C31.0456 28.7495 30.7041 29.3811 30.4191 29.7826C30.1845 30.113 29.9345 30.3866 29.7167 30.5866C29.643 30.6543 29.5664 30.7186 29.4901 30.7772C29.2113 31.0806 28.7677 31.2047 28.3558 31.0563C28.3429 31.0517 28.3267 31.0451 28.3077 31.0381C28.2943 31.0333 28.281 31.0283 28.2679 31.023C28.204 30.9987 28.121 30.9661 28.0368 30.9231C27.9079 30.8572 27.7961 30.7808 27.7446 30.7463L27.6842 30.7054L27.63 30.657C27.2296 30.2994 26.9896 29.8251 26.8489 29.3737C26.7645 29.1029 26.6653 28.7674 26.6058 28.4271C26.5485 28.099 26.5092 27.6695 26.6189 27.2406C26.6476 27.1284 26.7042 26.9602 26.8153 26.7963C26.8656 26.722 26.9865 26.559 27.2015 26.4379Z" fill="currentColor"/>
<path fill-rule="evenodd" clip-rule="evenodd" d="M9.0078 21.9356C7.13533 21.3313 5.54773 22.8172 4.66476 24.1813C3.78187 25.5452 3.30111 26.7536 3.21217 28.5099C3.12321 30.2662 3.03421 31.3195 4.1666 33.3136C5.29906 35.3079 7.4791 37.496 10.6321 37.8668C13.7851 38.2376 15.756 37.5976 17.7783 35.939C19.8005 34.2804 20.6724 31.6821 20.9194 30.2859C21.1663 28.8897 21.2922 26.4054 20.2987 25.1477C19.3714 23.9739 18.9061 23.4926 17.0391 23.3981C15.1722 23.3038 14.6742 24.8633 12.7675 24.2386C10.861 23.6139 10.8801 22.5398 9.0078 21.9356ZM7.68154 25.2092C7.92873 25.1746 8.41952 25.209 8.74069 25.6407L8.80249 25.7324C8.87895 25.8577 8.92245 25.9783 8.94188 26.0338C8.96057 26.0873 8.98637 26.1691 8.99544 26.1969C9.0091 26.2388 9.02295 26.2783 9.0387 26.3181C9.27915 26.2384 9.55583 26.1924 9.85889 26.2268L9.9461 26.2388C10.0408 26.2541 10.2506 26.2943 10.4597 26.4262C10.5738 26.4982 10.7295 26.6238 10.8459 26.8286C10.9716 27.0496 11.0143 27.2987 10.9816 27.5359C10.9369 27.8593 10.7602 28.0862 10.7162 28.1435C10.6394 28.2436 10.5562 28.3284 10.4882 28.3911C10.1475 28.705 9.7041 29.0382 9.37103 29.2906C9.2635 29.3721 9.15357 29.4496 9.04659 29.5203C8.90433 29.6848 8.71096 29.8079 8.48251 29.8595C8.43722 29.8697 8.40951 29.8781 8.37849 29.8883C8.36798 29.8918 8.3259 29.9059 8.2954 29.9154C8.2566 29.9276 8.20423 29.9427 8.14228 29.9563C8.0282 29.9814 7.49906 30.0911 7.04914 29.6603C6.73639 29.3608 6.65564 28.9603 6.62136 28.7526L6.61346 28.7042L6.61003 28.6551C6.57413 28.1483 6.52456 27.5875 6.52042 27.1428C6.51833 26.9172 6.52633 26.6678 6.56746 26.4335C6.60103 26.2422 6.68069 25.9074 6.92898 25.6218L6.98082 25.5655L7.05086 25.4993C7.22098 25.3505 7.43845 25.2432 7.68154 25.2092Z" fill="currentColor"/>
<path d="M13.3594 5.625C12.777 5.62509 12.4806 5.97656 12.3047 6.67969L11.9532 8.4375C11.9532 9.01993 12.4254 9.49209 13.0079 9.49219H18.1539C18.4667 9.49219 18.625 9.87088 18.409 10.0971C17.5438 11.003 16.4725 12.5758 15.1571 14.4137C13.3771 16.9008 12.7077 19.3332 12.1145 20.6608C11.8189 21.3226 11.8722 22.0596 12.7617 22.499C13.6516 22.9383 14.4595 22.3789 14.72 21.7962C15.2393 20.6339 16.4032 17.7531 17.6492 15.9954C18.8952 14.2379 20.3379 12.1513 21.2713 11.2225C21.9587 10.5386 23.041 10.5386 23.7284 11.2225C24.6618 12.1512 26.1045 14.2378 27.3505 15.9954C28.5966 17.7531 29.7603 20.6338 30.2797 21.7962C30.5402 22.3789 31.3481 22.9382 32.238 22.499C33.1279 22.0595 33.1809 21.3227 32.8852 20.6608C32.292 19.3332 31.6227 16.9008 29.8427 14.4137C28.5273 12.5759 27.4565 11.003 26.5914 10.0971C26.3754 9.87087 26.5337 9.49219 26.8465 9.49219H31.9922C32.5747 9.49214 33.0469 9.01996 33.0469 8.4375L32.6954 6.67969C32.5197 5.97656 32.2231 5.62505 31.6407 5.625H13.3594Z" fill="currentColor"/>
</svg>
