<svg class="icon" width="45" height="45" viewBox="0 0 45 45" fill="none" xmlns="http://www.w3.org/2000/svg">
<path fill-rule="evenodd" clip-rule="evenodd" d="M28.4669 17.4185C29.1141 17.1472 29.8539 17.154 30.463 17.5023C31.7861 18.259 33.0599 19.0186 34.1167 19.705C34.7809 20.1364 35.3503 20.533 35.789 20.8771C36.2458 21.2354 36.5019 21.4919 36.6006 21.64C37.2628 22.6333 37.8127 23.8541 38.2008 24.8459C38.2817 25.0525 38.3527 25.2412 38.4147 25.41C38.6387 26.0197 38.4773 27.0778 37.8987 27.3728C37.4209 27.6164 36.8799 27.7539 36.3067 27.7539H31.8452C31.4713 27.7539 31.1622 28.046 31.1476 28.4196C31.1097 29.3934 31.0887 28.9648 31.2091 29.6875C31.4143 30.9179 32.3437 32.5195 32.6953 33.2227C33.0468 33.9258 33.9257 35.5078 33.9258 36.2109C33.9258 36.914 33.9257 37.09 33.2227 37.9688C32.5196 38.8477 31.5283 39.9699 30.8252 40.5691C30.1221 41.1682 28.9553 41.7995 28.1885 41.9753C27.4217 42.1511 25.7712 42.1463 24.9609 41.6602C24.1506 41.174 23.7305 39.5508 24.6094 38.4961C25.4883 37.4415 26.6234 37.6689 27.4219 37.0898C28.2815 36.4666 28.6459 35.7812 28.8281 35.5078C29.1793 34.9803 27.3809 32.4997 26.9903 30.7422C26.7424 29.6266 26.7389 29.4189 26.7692 28.4834C26.7786 28.0847 26.4598 27.7539 26.0609 27.7539H19.4218C19.0701 27.7539 18.7725 28.0124 18.7269 28.3612C18.5584 29.2991 18.1844 31.5661 18.1844 32.5195C18.1844 33.7499 18.2641 35.703 18.0087 36.0352C17.7531 36.3669 17.5969 36.5198 17.0498 36.7187C16.5027 36.9176 15.7233 36.5625 14.6688 36.5625C13.6141 36.5625 12.2877 36.914 11.5047 36.9141C10.7218 36.9141 10.4499 37.0901 9.1396 36.8945C7.90915 36.5429 7.55861 35.4179 7.55859 34.8905C7.55859 34.3631 7.63759 33.2227 9.21959 32.6953C10.8017 32.1681 13.7075 32.6561 14.0124 31.9726C14.2792 31.3744 14.5817 29.9832 14.757 28.5119C14.7963 28.1036 14.4728 27.7539 14.0625 27.7539H8.18172C7.60861 27.7539 7.06757 27.6166 6.58974 27.3731C6.01071 27.0781 5.84927 26.0197 6.07338 25.4097C6.13539 25.2411 6.20682 25.0524 6.28761 24.8459C6.67573 23.8541 7.22567 22.6333 7.88784 21.64C7.98662 21.4919 8.24277 21.2353 8.69946 20.8771C9.13814 20.533 9.70756 20.1364 10.3718 19.705C11.4285 19.0187 12.7018 18.259 14.0247 17.5023C14.6338 17.1539 15.3736 17.1473 16.0208 17.4185C20.0012 19.0867 24.4865 19.0866 28.4669 17.4185ZM26.5787 20.7786C26.4103 20.7033 26.1805 20.6456 25.9174 20.6903C25.6842 20.7302 25.4951 20.8389 25.351 20.9667L25.2919 21.0227C25.1789 21.1366 25.0836 21.2664 25.0265 21.3444C24.9559 21.4407 24.9148 21.4982 24.8703 21.5507C24.8652 21.5567 24.8595 21.5616 24.8552 21.5665C24.8299 21.568 24.806 21.57 24.7831 21.571C24.7362 21.5729 24.7004 21.5727 24.6729 21.572C24.649 21.5557 24.6202 21.5348 24.5843 21.5075C24.5276 21.4643 24.3816 21.348 24.2829 21.2764C24.1773 21.1998 23.9977 21.0761 23.782 21.0035C23.5588 20.9284 23.1977 20.8796 22.8454 21.0883L22.775 21.1336C22.703 21.1838 22.6368 21.24 22.591 21.2802C22.5429 21.3222 22.4856 21.3745 22.4355 21.4196C22.3288 21.5155 22.2038 21.6258 22.0482 21.7481C21.7836 21.956 21.5933 22.079 21.4522 22.1443C21.3657 22.1843 21.3237 22.1903 21.3128 22.191C20.9012 22.1179 20.3749 22.077 20.1029 22.077C19.6175 22.077 19.224 22.4705 19.224 22.9559C19.2241 23.4413 19.6175 23.8348 20.1029 23.8348C20.2713 23.8349 20.6991 23.8668 21.011 23.9227C21.4524 24.0019 21.856 23.8945 22.19 23.7401C22.2815 23.6977 22.3721 23.6491 22.4619 23.5969C22.6279 23.9476 22.9124 24.1659 23.1451 24.2956C23.4109 24.4437 23.7782 24.5605 23.9076 24.6094C24.6336 24.8835 25.3256 24.6726 25.7351 24.5139L25.8804 24.4576L25.9974 24.355C26.2934 24.0951 26.5467 23.8676 26.7672 23.6474L26.7974 23.6168L26.8248 23.5835C26.8598 23.541 26.8945 23.4952 26.9289 23.4479C27.1747 23.5612 27.4146 23.5972 27.597 23.6144C27.7194 23.626 27.847 23.6312 27.9492 23.6357C28.0591 23.6406 28.1575 23.6455 28.2592 23.6549L28.2774 23.6567L28.2953 23.6573C28.5017 23.6679 28.8251 23.6712 29.0966 23.6313C29.2533 23.6082 29.4326 23.5653 29.6205 23.4658C29.7998 23.3707 29.9397 23.2488 30.0545 23.1348C30.3987 22.7927 30.4006 22.2363 30.0586 21.892C29.7165 21.5477 29.1601 21.546 28.8158 21.8879C28.8131 21.8905 28.8099 21.8927 28.8075 21.8951C28.7003 21.9065 28.5319 21.9094 28.3849 21.9019C28.2511 21.8905 28.128 21.8841 28.0272 21.8796C27.9097 21.8744 27.8316 21.871 27.7625 21.8645C27.7215 21.8606 27.6944 21.856 27.678 21.8528C27.6574 21.8318 27.6159 21.7874 27.5479 21.7035C27.4735 21.6117 27.3217 21.4131 27.2028 21.2767C27.0897 21.147 26.8741 20.9106 26.5787 20.7786Z" fill="currentColor"/>
<path d="M4.92188 9.26285C4.92188 8.88971 5.42655 8.77348 5.58964 9.10904L6.84689 11.3458C7.08016 11.6957 7.49416 12.0694 7.96062 12.4352C8.44532 12.8153 9.05315 13.2372 9.73492 13.68C10.4426 14.1397 11.2404 14.6285 12.0802 15.1247C12.784 15.5407 12.784 16.5662 12.0802 16.9821C11.2404 17.4783 10.4426 17.9672 9.73492 18.4268C9.05316 18.8696 8.44531 19.2916 7.96062 19.6717C7.49421 20.0375 7.08017 20.4112 6.84689 20.7611L5.58964 22.9975C5.4266 23.3331 4.92195 23.2171 4.92188 22.844V9.26285Z" fill="currentColor"/>
<path d="M39.2555 9.10904C39.4186 8.77346 39.9236 8.88971 39.9236 9.26285V22.844C39.9235 23.2171 39.4185 23.3331 39.2555 22.9975L37.9986 20.7611C37.7653 20.4112 37.3513 20.0375 36.8849 19.6717C36.4002 19.2915 35.7923 18.8696 35.1106 18.4268C34.4028 17.9671 33.6048 17.4784 32.765 16.9821C32.0612 16.5662 32.0612 15.5407 32.765 15.1247C33.6048 14.6286 34.4028 14.1397 35.1106 13.68C35.7923 13.2373 36.4002 12.8153 36.8849 12.4352C37.3513 12.0694 37.7653 11.6957 37.9986 11.3458L39.2555 9.10904Z" fill="currentColor"/>
<path fill-rule="evenodd" clip-rule="evenodd" d="M36.4224 4.92188C36.9956 4.92189 37.5365 5.05945 38.0144 5.30296C38.5931 5.59789 38.7548 6.30414 38.5308 6.91383C38.4688 7.08274 38.3975 7.27141 38.3165 7.47826C37.9284 8.47013 37.3785 9.69085 36.7163 10.6842C36.6176 10.8322 36.3615 11.0888 35.9047 11.4471C35.466 11.7911 34.8966 12.1877 34.2324 12.6192C32.905 13.4813 31.2356 14.459 29.5556 15.4015C25.0833 17.9105 19.6365 17.9105 15.1642 15.4015C13.4842 14.459 11.8149 13.4813 10.4875 12.6192C9.82318 12.1877 9.25386 11.7911 8.81516 11.4471C8.35825 11.0887 8.10225 10.8322 8.00354 10.6842C7.34129 9.69083 6.79145 8.47016 6.40331 7.47826C6.32242 7.27156 6.25113 7.083 6.18908 6.91418C5.96495 6.30423 6.12638 5.59755 6.70544 5.30262C7.18331 5.05925 7.72434 4.92188 8.29742 4.92188H36.4224ZM15.9109 7.3011C15.4036 7.08745 14.7487 6.91668 14.0265 7.2187C13.8853 7.27775 13.7475 7.33029 13.599 7.38762C13.4562 7.44275 13.2996 7.50358 13.1489 7.57061C12.8526 7.70236 12.4982 7.89114 12.211 8.21297C11.8506 8.6169 11.5589 9.07923 11.4388 9.27898C11.1887 9.69497 11.3232 10.2349 11.7392 10.4851C12.1552 10.7352 12.6952 10.6009 12.9453 10.185C13.0464 10.0169 13.2715 9.66476 13.5225 9.38335C13.5623 9.33882 13.6473 9.27279 13.8634 9.17667C13.8968 9.16183 13.9317 9.14744 13.9681 9.13239C13.8708 9.43524 13.8163 9.74233 13.8064 10.0298C13.7948 10.3659 13.8394 10.8129 14.0889 11.1755C14.1002 11.1919 14.2211 11.3858 14.3619 11.5329C14.5287 11.7072 14.8017 11.9124 15.1968 11.9572C15.661 12.0098 16.1445 11.9407 16.5341 11.707C16.6128 11.6598 17.4612 11.2645 17.6392 10.3278C17.6874 10.0742 17.7182 9.81041 17.7079 9.55845C17.698 9.31734 17.6474 9.00076 17.4542 8.71697C17.0662 8.14722 16.5146 7.55536 15.9109 7.3011ZM31.7831 7.17407C31.4801 7.06498 31.0898 6.97973 30.6182 7.05494C30.4182 7.08684 30.3191 7.08966 30.0668 7.12257C29.8577 7.14984 29.6009 7.19403 29.3311 7.30076C28.5503 7.60963 28.0578 7.98448 27.6886 8.48625C27.5079 8.73185 27.3486 9.01039 27.233 9.22474C27.1738 9.3347 27.1221 9.43498 27.0827 9.51176C27.0625 9.55129 27.0467 9.58184 27.0336 9.6072C27.0205 9.63237 27.0147 9.64291 27.0147 9.64291C26.7733 10.064 26.9192 10.6011 27.3402 10.8425C27.7613 11.0838 28.2983 10.9381 28.5397 10.517C28.5713 10.4619 28.6144 10.377 28.6465 10.3144C28.6851 10.2392 28.7299 10.1525 28.7801 10.0594C28.8836 9.86754 28.9969 9.67408 29.1045 9.52789C29.2323 9.35409 29.4137 9.17696 29.8598 8.98476C29.8471 9.02829 29.8365 9.07025 29.8279 9.10938C29.7669 9.38601 29.7579 9.70605 29.82 10.046C29.8692 10.3155 29.9738 10.9101 30.495 11.2572C30.6292 11.3465 30.8508 11.4829 31.1195 11.5652C31.3963 11.6499 31.7933 11.6968 32.2023 11.5027C32.4143 11.4021 32.7267 11.2634 32.9676 11.0965C33.2414 10.907 33.5623 10.5902 33.6377 10.0765C33.6914 9.71023 33.6896 9.30712 33.6267 8.94218C33.5721 8.62492 33.4387 8.13743 33.064 7.813C32.8021 7.58626 32.5288 7.47594 32.3348 7.40788C32.2946 7.39377 32.2459 7.3719 32.1436 7.32513C32.0539 7.28416 31.9259 7.22552 31.7831 7.17407Z" fill="currentColor"/>
</svg>
