<svg class="icon" width="45" height="45" viewBox="0 0 45 45" fill="none" xmlns="http://www.w3.org/2000/svg">
<path d="M11.9585 24.0515C12.078 24.0292 12.2638 24.0374 12.619 24.0638L13.3122 24.115L13.2929 24.3769C13.2803 24.5464 13.1909 24.8339 13.1082 25.0155C13.0389 25.1484 12.9867 25.2181 12.9331 25.2552C12.883 25.2898 12.8226 25.302 12.7193 25.2943C12.6361 25.2882 12.508 25.2974 12.3728 25.3166C12.2372 25.3359 12.0887 25.3661 11.9615 25.4031C11.8408 25.4336 11.7159 25.4563 11.6141 25.467C11.5632 25.4723 11.5193 25.4745 11.4854 25.4735C11.4685 25.473 11.4549 25.4718 11.4448 25.4701C11.4361 25.4686 11.4319 25.4669 11.4311 25.4667L11.4287 25.4656C11.4326 25.4675 11.4247 25.466 11.4157 25.4382C11.4072 25.4122 11.4016 25.3737 11.3999 25.3238C11.3965 25.2247 11.4097 25.0931 11.4369 24.9517C11.4641 24.8107 11.5045 24.6629 11.5533 24.5318C11.6025 24.3996 11.6589 24.2889 11.7157 24.219C11.7593 24.1653 11.793 24.1293 11.8287 24.1037C11.8629 24.0791 11.902 24.062 11.9585 24.0515Z" fill="currentColor"/>
<path d="M15.2774 21.94C15.3526 21.9349 15.4536 21.9728 15.5891 22.0715L15.5908 22.0726C15.6568 22.118 15.7773 22.1697 15.9111 22.2174C16.0474 22.2661 16.2054 22.3135 16.3513 22.35L16.3537 22.3507C16.4807 22.3778 16.5743 22.3989 16.6441 22.42C16.7145 22.4413 16.7537 22.4608 16.777 22.4804C16.7972 22.4975 16.8098 22.5181 16.8178 22.5542C16.8267 22.5941 16.8291 22.6476 16.8309 22.7273C16.8369 22.9841 16.7955 23.0996 16.6977 23.1599C16.6445 23.1926 16.5664 23.2142 16.4512 23.2234C16.3365 23.2324 16.1905 23.2285 16.0059 23.2148L15.3529 23.1664C15.3321 23.1649 15.3117 23.1727 15.2973 23.1877C15.2828 23.2027 15.2754 23.2236 15.2777 23.2443L15.3141 23.5701L15.3144 23.5715C15.3435 23.7982 15.3925 23.967 15.495 24.0813C15.6003 24.1986 15.7505 24.2462 15.9486 24.2609C16.0701 24.27 16.1382 24.2903 16.1854 24.3248C16.2323 24.359 16.2691 24.415 16.3101 24.5205L16.3104 24.5215C16.3372 24.5869 16.3501 24.6532 16.3516 24.7052C16.3524 24.7311 16.3502 24.7516 16.3468 24.7656C16.3459 24.7691 16.3448 24.7718 16.3441 24.7738C16.3426 24.7743 16.3409 24.7753 16.3389 24.7759C16.3258 24.7796 16.3068 24.7836 16.2819 24.7879C16.2322 24.7965 16.1637 24.805 16.0814 24.8126C15.9171 24.8278 15.7011 24.8389 15.4755 24.8421L14.7129 24.8408L14.8008 23.6604C14.8312 23.2521 14.8677 22.9222 14.9138 22.6634C14.96 22.4034 15.0151 22.2206 15.0796 22.1028C15.1433 21.9865 15.2094 21.9447 15.2774 21.94Z" fill="currentColor"/>
<path d="M34.1539 27.3402C34.2827 27.3276 34.3506 27.3351 34.396 27.3587C34.439 27.3813 34.475 27.4258 34.5199 27.5256L34.5203 27.5262C34.612 27.7258 34.643 27.8586 34.6291 27.9527C34.6164 28.0381 34.5641 28.1049 34.4437 28.1672L34.4427 28.1676C34.2671 28.2611 34.1261 28.3021 34.0046 28.2984C33.8855 28.2946 33.7759 28.2476 33.663 28.1473C33.5527 28.0493 33.4907 27.953 33.4659 27.8668C33.4416 27.7822 33.452 27.7035 33.492 27.6337C33.5744 27.4902 33.7949 27.3665 34.1522 27.3405L34.1539 27.3402Z" fill="currentColor"/>
<path d="M28.0898 27.2011C28.1245 27.2141 28.1734 27.2586 28.2107 27.3755C28.2458 27.5046 28.2585 27.7223 28.2388 27.8545C28.2095 28.0096 28.1151 28.06 28.0376 28.0532C27.956 28.0459 27.8569 27.9726 27.8296 27.8074L27.8292 27.8061L27.8217 27.7576C27.7916 27.5186 27.8728 27.3239 27.9666 27.2399C28.0155 27.1961 28.0582 27.1895 28.0898 27.2011Z" fill="currentColor"/>
<path d="M33.755 25.4663C33.8895 25.4634 33.9647 25.4764 34.0084 25.5006C34.0446 25.5209 34.0678 25.5543 34.0808 25.627L34.0811 25.629C34.102 25.7289 34.06 25.8195 33.9545 25.8893C33.8464 25.9606 33.6753 26.0055 33.4625 25.9988C33.3025 25.9939 33.2158 25.9514 33.1761 25.9071C33.1402 25.8668 33.1325 25.8125 33.16 25.7489C33.2177 25.6156 33.4286 25.4617 33.7526 25.4663H33.755Z" fill="currentColor"/>
<path d="M33.8734 20.5132C33.8901 20.5476 33.9047 20.6006 33.9085 20.6632C33.9119 20.7226 33.9062 20.7678 33.8968 20.7992C33.8871 20.8312 33.8751 20.8431 33.8703 20.8462C33.8689 20.8471 33.8661 20.8494 33.8556 20.8448C33.842 20.8388 33.8197 20.822 33.7938 20.7848L33.7928 20.7834L33.7821 20.7655C33.76 20.721 33.7572 20.6556 33.777 20.5925C33.7878 20.5579 33.8039 20.5289 33.8216 20.5098C33.8342 20.4962 33.8465 20.49 33.8566 20.4868C33.861 20.4921 33.8673 20.5006 33.8734 20.5132Z" fill="currentColor"/>
<path fill-rule="evenodd" clip-rule="evenodd" d="M40.7358 5.97656C41.3182 5.97664 41.7905 6.44881 41.7905 7.03125V8.78906C41.7905 9.3715 41.3182 9.84367 40.7358 9.84375H39.6811C39.2928 9.84382 38.978 10.1586 38.978 10.5469V11.4258C38.978 25.3638 41.2403 33.5761 42.3803 36.741C42.6459 37.4786 42.0982 38.3203 41.3143 38.3203H26.986C26.1065 38.3203 25.2376 38.0129 24.6363 37.371C23.1969 35.8341 22.4545 31.9921 22.4545 28.4766C22.4545 31.9922 21.7118 35.8342 20.2724 37.371C19.6711 38.0129 18.8025 38.3203 17.923 38.3203H3.59442C2.81054 38.3201 2.26313 37.4786 2.52875 36.741C3.66877 33.5761 5.93108 25.3638 5.93108 11.4258V10.5469C5.93108 10.1586 5.61621 9.84383 5.22795 9.84375H4.17327C3.59084 9.84368 3.11858 9.37151 3.11858 8.78906V7.03125C3.11858 6.4488 3.59084 5.97663 4.17327 5.97656H40.7358ZM10.7537 16.6371C10.7024 16.6422 10.6586 16.6641 10.6253 16.7081C10.5958 16.7472 10.5777 16.8 10.5632 16.8609C10.5484 16.9232 10.5352 17.0034 10.5203 17.103C10.471 17.4294 10.3942 17.6291 10.2745 17.7488C10.172 17.8511 10.0285 17.9043 9.81337 17.9156L9.71656 17.918C9.61057 17.9177 9.52476 17.919 9.45597 17.9252C9.38778 17.9314 9.32967 17.9427 9.28225 17.9657C9.17722 18.0169 9.1473 18.1136 9.12364 18.228L9.12329 18.2298C9.09197 18.4014 9.18516 18.6003 9.34439 18.7935C9.48648 18.9658 9.69102 19.1457 9.94315 19.3164L10.054 19.3892C10.166 19.4611 10.2278 19.5196 10.2618 19.5797C10.2947 19.6381 10.3061 19.7066 10.2985 19.8097C10.2861 19.9759 10.2966 20.2539 10.3143 20.4294L10.3146 20.4325C10.3345 20.5692 10.3283 20.6267 10.2913 20.6776C10.2707 20.7059 10.2375 20.7364 10.1821 20.7741C10.1268 20.8117 10.0534 20.8537 9.9562 20.907L9.95482 20.908C9.69993 21.0552 9.53061 21.2304 9.47554 21.4227C9.41887 21.6207 9.48862 21.817 9.66574 21.9881C9.72191 22.0449 9.80541 22.0898 9.90264 22.1261C10.0012 22.1629 10.1203 22.1929 10.2525 22.2168C10.517 22.2644 10.8421 22.2885 11.1812 22.2895C11.8572 22.2916 12.6049 22.2025 13.0554 22.0176L13.0561 22.0173C13.24 21.9394 13.3462 21.9052 13.4114 21.9006C13.4414 21.8985 13.4566 21.9034 13.465 21.9081C13.4734 21.913 13.4834 21.9224 13.4952 21.9442L13.4959 21.9455C13.5104 21.9714 13.5242 22.0249 13.5319 22.1052C13.5393 22.1827 13.5403 22.2769 13.5353 22.3771C13.5254 22.5773 13.4917 22.7942 13.4426 22.9439C13.4229 22.9975 13.4101 23.0301 13.398 23.0507C13.3943 23.0569 13.3911 23.0599 13.3894 23.0617C13.3874 23.0615 13.384 23.0615 13.3795 23.0603C13.3697 23.0576 13.3558 23.0525 13.3372 23.0435C13.2994 23.0251 13.2491 22.9951 13.1786 22.9518L13.1783 22.9515L13.0753 22.8938C12.8285 22.7654 12.5367 22.6829 12.2486 22.6524C11.961 22.622 11.6714 22.6426 11.4294 22.7249L11.3288 22.764C11.0985 22.8631 10.7415 22.9242 10.5124 22.9072C10.3884 22.898 10.2657 22.8995 10.1667 22.9079C10.1172 22.9121 10.0723 22.918 10.0355 22.9257C10.0017 22.9329 9.96473 22.9435 9.93903 22.9611L9.938 22.9618C9.93107 22.9667 9.90682 22.9786 9.85938 22.9954C9.81475 23.0112 9.75606 23.0291 9.68737 23.0483C9.55004 23.0866 9.37391 23.1289 9.19093 23.1654C8.79919 23.2464 8.55564 23.3068 8.40884 23.3875C8.33268 23.4294 8.27776 23.4791 8.24164 23.5434C8.20623 23.6064 8.19246 23.6773 8.18671 23.7545C8.17003 23.9787 8.31343 24.1584 8.53003 24.2729C8.74698 24.3876 9.04971 24.4454 9.388 24.4291L9.9095 24.4017L10.2944 24.8789L10.2947 24.8796C10.4097 25.0185 10.5127 25.1514 10.5858 25.2538C10.6224 25.305 10.651 25.3478 10.67 25.3794C10.6789 25.3944 10.6851 25.4059 10.6888 25.4138C10.6856 25.4279 10.677 25.447 10.6573 25.4694C10.634 25.4959 10.5996 25.5228 10.5574 25.5466C10.4721 25.5947 10.3647 25.624 10.2707 25.617C10.087 25.6034 9.88786 25.6455 9.73201 25.7159C9.65402 25.7512 9.58366 25.7949 9.53082 25.8453C9.47874 25.8951 9.43734 25.9576 9.43194 26.0294C9.42873 26.0725 9.44598 26.1164 9.46627 26.1533C9.48775 26.1923 9.51855 26.2337 9.55519 26.2748C9.62821 26.3567 9.73021 26.4436 9.84565 26.5155C10.0269 26.637 10.1549 26.7097 10.372 26.7527C10.5831 26.7946 10.8794 26.8084 11.3968 26.8217C11.71 26.8299 12.0239 26.8332 12.2801 26.8307C12.5334 26.8282 12.7373 26.8202 12.826 26.8049H12.8267C12.8849 26.7943 12.9275 26.7885 12.9586 26.7874C12.9863 26.7865 12.9981 26.7897 13.0018 26.7912C13.0023 26.7922 13.0035 26.7949 13.0046 26.7998C13.0078 26.8148 13.0087 26.8396 13.0056 26.8811C13.0007 26.9471 12.987 26.9944 12.9637 27.0301C12.9409 27.0651 12.9049 27.0955 12.8446 27.1208C12.7183 27.1737 12.5026 27.1979 12.1373 27.2011H12.1353C11.862 27.2111 11.4339 27.2267 11.0607 27.2464L10.7136 27.2674C10.2966 27.2871 9.67076 27.321 9.32894 27.3257H9.32791C9.18124 27.33 9.06581 27.3349 8.97567 27.3433C8.8866 27.3515 8.81602 27.3634 8.76212 27.3848C8.70505 27.4074 8.6636 27.4417 8.63818 27.4923C8.61508 27.5382 8.60848 27.592 8.60453 27.645C8.57701 28.0151 8.89779 28.3382 9.3698 28.5075C9.61701 28.5969 9.77862 28.6468 9.99739 28.6565C10.2124 28.6659 10.4813 28.6363 10.9439 28.5751L10.9436 28.5748C11.369 28.5261 11.9588 28.5112 12.2499 28.5524H12.2506C12.3785 28.5695 12.4737 28.5836 12.5479 28.6005C12.6217 28.6173 12.6704 28.6361 12.7072 28.6606C12.7805 28.7094 12.8498 28.6753 12.9331 28.8724C13.0546 29.1559 13.2562 29.393 13.4814 29.5453C13.7054 29.6968 13.9622 29.7701 14.1901 29.707L14.1897 29.7067C14.2581 29.6894 14.3192 29.6722 14.3689 29.6445C14.4227 29.6146 14.462 29.5735 14.4901 29.5137C14.5166 29.4573 14.5324 29.3858 14.5444 29.2961C14.5564 29.2055 14.5656 29.0895 14.5766 28.9418C14.5938 28.7114 14.5899 28.6678 14.6202 28.5614C14.6511 28.4532 14.686 28.4166 14.7143 28.4038L14.716 28.4031C14.716 28.4031 14.717 28.4028 14.7181 28.4024C14.7197 28.4019 14.7223 28.4011 14.7253 28.4003C14.7315 28.3989 14.7398 28.3972 14.7504 28.3959C14.7718 28.3932 14.8001 28.3918 14.8345 28.3914C14.9031 28.3906 15.6958 28.3945 15.8002 28.4027C16.009 28.4192 16.2731 28.4518 16.5398 28.493C16.8063 28.5342 17.0748 28.5838 17.2927 28.6335C17.4015 28.6583 17.4971 28.6831 17.5732 28.7066C17.6509 28.7306 17.7024 28.7518 17.7276 28.7677C17.7896 28.8077 17.886 28.8443 17.9869 28.8724C18.0894 28.901 18.2039 28.9229 18.3048 28.9304C18.4419 28.9406 18.5491 28.9364 18.6371 28.8958C18.728 28.8538 18.7868 28.7784 18.8421 28.6767C18.8949 28.5814 18.9357 28.4999 18.9598 28.4275C18.9842 28.3542 18.9933 28.2855 18.9784 28.2177C18.9634 28.15 18.9261 28.0914 18.8737 28.035C18.8219 27.9795 18.7519 27.9222 18.6656 27.8576C18.2262 27.522 17.9223 27.3136 17.6689 27.197C17.4112 27.0784 17.2048 27.0545 16.9631 27.0844C16.733 27.1068 16.3249 27.1165 16.0759 27.1081C15.8784 27.0934 15.0687 27.0744 15.0082 27.0452C14.9807 27.032 14.9652 27.0179 14.955 27.0023C14.9441 26.9857 14.9358 26.9624 14.9296 26.9265L14.9292 26.9254L14.9272 26.889C14.9297 26.8532 14.9469 26.8186 14.9811 26.785C15.0286 26.7383 15.107 26.6957 15.2125 26.6642C15.4229 26.6013 15.7203 26.5886 16.0244 26.6504C16.2529 26.697 16.3935 26.7272 16.5504 26.6714C16.6272 26.644 16.705 26.5974 16.7983 26.5299C16.8916 26.4624 17.0049 26.3707 17.1522 26.2508L17.2879 26.1368C17.4169 26.0249 17.5251 25.9194 17.6075 25.8247C17.6623 25.7617 17.707 25.7023 17.739 25.6479C17.7703 25.5947 17.7929 25.5405 17.7967 25.4897C17.798 25.4725 17.8065 25.4425 17.8269 25.3997C17.8467 25.3581 17.8751 25.3093 17.9106 25.2565C17.9818 25.1511 18.079 25.0333 18.185 24.9283L18.1856 24.9276C18.3682 24.7418 18.4638 24.6558 18.5695 24.6145C18.6744 24.5736 18.7968 24.5737 19.0457 24.5922C19.3458 24.6145 19.5611 24.6018 19.7045 24.5129C19.8563 24.4187 19.9091 24.2529 19.9256 24.0316C19.9309 23.96 19.9323 23.8934 19.9156 23.829C19.8984 23.7625 19.8637 23.7036 19.8065 23.6433C19.6969 23.5279 19.4927 23.3947 19.1346 23.1733C18.9237 23.037 18.7109 22.8905 18.5386 22.7637C18.3636 22.6348 18.2368 22.531 18.1918 22.4787C18.1427 22.4217 18.0852 22.3664 18.0311 22.3242C18.0042 22.3032 17.9767 22.2844 17.9508 22.2703C17.9264 22.2571 17.8966 22.2441 17.8667 22.2418C17.8519 22.2407 17.8455 22.2372 17.8437 22.236C17.8427 22.2353 17.8416 22.2345 17.8406 22.2315C17.8373 22.2212 17.8363 22.1934 17.8564 22.144C17.8955 22.0478 17.9958 21.9127 18.153 21.7773C18.2501 21.6937 18.3377 21.5912 18.4026 21.4906C18.4662 21.3921 18.5135 21.287 18.52 21.1992C18.5353 20.9929 18.3919 20.7917 18.2045 20.6526C18.0144 20.5114 17.759 20.4179 17.5148 20.4383C17.3242 20.4532 17.1511 20.4327 17.03 20.3923C16.9693 20.3721 16.9256 20.3482 16.8992 20.3251C16.8743 20.3032 16.8704 20.2877 16.8707 20.2794C16.8703 20.2828 16.8697 20.2819 16.8728 20.2753C16.8758 20.2688 16.8809 20.2597 16.8886 20.2481C16.9039 20.2251 16.9267 20.196 16.9559 20.163C17.0138 20.0974 17.0929 20.0202 17.177 19.9477C17.3206 19.8334 17.4082 19.7792 17.5007 19.7572C17.5942 19.735 17.7017 19.7432 17.8911 19.7775C18.0219 19.8025 18.1332 19.8168 18.2268 19.8145C18.321 19.8122 18.403 19.7934 18.4699 19.7479C18.6043 19.6565 18.6478 19.4791 18.6656 19.2398C18.6766 19.0916 18.6643 18.9676 18.6093 18.8385C18.5553 18.7117 18.462 18.5844 18.3209 18.4261L18.3206 18.4254L18.1716 18.2685C18.1228 18.2196 18.0757 18.1748 18.0332 18.1367C17.9909 18.0988 17.952 18.0664 17.9196 18.043C17.9035 18.0314 17.8877 18.021 17.8732 18.0131C17.8609 18.0065 17.8409 17.9966 17.819 17.9949C17.804 17.9937 17.773 17.981 17.7301 17.9451C17.6895 17.9113 17.6461 17.8639 17.6068 17.8106C17.5675 17.7573 17.5337 17.6997 17.5107 17.6471C17.4869 17.5927 17.4779 17.5505 17.4798 17.5249V17.5225C17.4858 17.3599 17.3929 17.1848 17.2628 17.0453C17.1312 16.9043 16.95 16.7867 16.7595 16.7449C16.6804 16.7265 16.6145 16.7127 16.56 16.7064C16.5058 16.7002 16.4557 16.7005 16.4113 16.7147C16.3147 16.7457 16.2762 16.8322 16.2445 16.9275L16.2249 16.9849C16.1791 17.1321 16.1384 17.3655 16.1257 17.5356C16.1155 17.6724 16.1009 17.7747 16.0773 17.8511C16.0541 17.9264 16.0236 17.9713 15.9853 17.9997C15.9463 18.0286 15.89 18.0472 15.8026 18.0526C15.7149 18.058 15.6018 18.0497 15.4552 18.0313C15.0742 17.9828 14.8538 18.0045 14.6899 18.1343C14.6407 18.1722 14.5966 18.2062 14.5653 18.2411C14.5313 18.279 14.5086 18.3215 14.5045 18.376C14.5008 18.4262 14.5135 18.4805 14.5337 18.5415C14.5542 18.6033 14.5858 18.6809 14.6261 18.7791L14.6268 18.7804C14.7015 18.9506 14.7716 19.0704 14.8777 19.1646C14.9827 19.2577 15.1176 19.3211 15.31 19.3912C15.5037 19.467 15.6077 19.5169 15.666 19.5708C15.716 19.6171 15.7357 19.6697 15.7371 19.7757V19.7775C15.74 19.8583 15.7254 19.9281 15.6935 19.99C15.6614 20.0521 15.6096 20.1102 15.5318 20.1644L15.5307 20.1651C15.3567 20.291 15.2774 20.3239 15.1943 20.3027C15.149 20.2911 15.095 20.2617 15.0216 20.2039C14.9484 20.1462 14.861 20.0647 14.748 19.9553L14.7476 19.9549C14.4667 19.6841 14.2137 19.5298 13.9738 19.5162C13.7272 19.5023 13.517 19.6371 13.3256 19.8849L13.3245 19.8859C13.014 20.3059 12.5053 20.5297 11.9653 20.4895L11.6035 20.4627L11.6268 20.151C11.6445 19.9135 11.7036 19.7729 11.8201 19.6824C11.9415 19.588 12.1387 19.5364 12.4618 19.5152L12.4614 19.5148C12.7538 19.5014 12.9541 19.4725 13.0935 19.3912C13.2402 19.3055 13.3085 19.1693 13.3592 18.9796L13.3589 18.9792C13.3953 18.8593 13.3984 18.7577 13.3424 18.6407C13.2899 18.5311 13.1866 18.4103 13.0286 18.2431C12.8684 18.0737 12.7434 17.9619 12.6118 17.8905C12.4783 17.8182 12.343 17.7896 12.1672 17.7766C11.9552 17.7608 11.7899 17.7024 11.6824 17.6186C11.5772 17.5365 11.5259 17.4298 11.5351 17.3052C11.5462 17.1565 11.4657 17.0062 11.3511 16.8908C11.2352 16.7741 11.0741 16.6819 10.9034 16.6525C10.85 16.6412 10.7987 16.6327 10.7537 16.6371ZM32.2426 17.2266C32.1385 17.2145 32.0553 17.2485 31.9676 17.3076L31.8774 17.3742L31.8736 17.3773C31.8349 17.4121 31.8008 17.449 31.7754 17.4947C31.7496 17.5411 31.7351 17.5928 31.7294 17.655C31.7184 17.775 31.7402 17.9448 31.786 18.2126C31.8206 18.4147 31.8408 18.5683 31.8416 18.6864C31.8425 18.8046 31.8234 18.8775 31.7888 18.9264C31.7549 18.974 31.6979 19.0104 31.5969 19.0369C31.4948 19.0636 31.3567 19.0781 31.1711 19.0891C30.8649 19.1072 30.6453 19.147 30.5054 19.2371C30.4329 19.2838 30.3814 19.3445 30.3506 19.4204C30.3204 19.4949 30.3118 19.5801 30.3173 19.6741C30.3271 19.8394 30.4312 19.9805 30.594 20.0909C30.7569 20.2013 30.9864 20.2868 31.2673 20.3422C31.7877 20.4501 32.0956 20.7285 32.1136 21.0316C32.1186 21.1167 32.109 21.1725 32.0847 21.2132C32.0611 21.2528 32.0164 21.2897 31.9264 21.3221C31.8355 21.3547 31.7051 21.3799 31.5206 21.4007C31.4288 21.411 31.3242 21.4201 31.2058 21.4285L30.8065 21.4522C30.5183 21.4641 30.2646 21.4867 30.0728 21.5147C29.9772 21.5286 29.8953 21.5441 29.8318 21.5607C29.8002 21.5689 29.7718 21.578 29.7481 21.5874C29.7254 21.5965 29.7017 21.6078 29.6835 21.6232L29.6808 21.6259C29.5636 21.736 29.5221 21.8713 29.5462 22.0104C29.5697 22.1455 29.6535 22.2777 29.7721 22.3932C30.0099 22.6247 30.4079 22.8101 30.8484 22.8416H30.8501C31.1453 22.8546 31.5555 22.8412 31.7637 22.7973L31.7654 22.797C31.9159 22.7615 32.0363 22.7574 32.1249 22.7747C32.2129 22.7919 32.2653 22.8291 32.2921 22.8732C32.3189 22.9175 32.328 22.9823 32.3031 23.0703C32.278 23.1585 32.2196 23.2653 32.1201 23.3851C31.4132 24.2289 30.8802 24.842 30.5006 25.2452C30.3107 25.4469 30.1602 25.5949 30.0464 25.6926C29.9895 25.7414 29.9432 25.7766 29.9067 25.7993C29.8873 25.8114 29.8725 25.8187 29.862 25.823L29.8428 25.8289C29.7971 25.8315 29.7206 25.8229 29.6337 25.8035C29.5479 25.7842 29.4573 25.7559 29.3852 25.7228L29.3848 25.7224L29.3361 25.7032C29.2171 25.6616 29.0561 25.6436 28.8156 25.6435C28.5388 25.6433 28.1463 25.6669 27.5741 25.7108H27.5735C27.166 25.7449 26.7862 25.785 26.5033 25.8206C26.3622 25.8384 26.2442 25.8552 26.159 25.8697C26.1166 25.8769 26.0808 25.8837 26.0543 25.89C26.0413 25.893 26.029 25.8962 26.0189 25.8996C26.0122 25.9018 25.9947 25.9078 25.9808 25.9195L25.9674 25.9346C25.959 25.9474 25.9549 25.9614 25.953 25.9689C25.9506 25.9782 25.949 25.9887 25.9475 25.9991C25.9444 26.0203 25.9418 26.0472 25.9399 26.0781C25.9361 26.1402 25.9342 26.224 25.9337 26.3229C25.9328 26.5211 25.9379 26.7842 25.9495 27.0665V27.0672L26.0004 28.0938C26.0012 28.1107 26.0082 28.1269 26.0199 28.1391L26.5466 28.6836C26.8537 28.9995 27.069 29.1854 27.3822 29.2871C27.6905 29.3872 28.0895 29.4042 28.7579 29.4049L29.1407 29.4028C29.2531 29.4005 29.3512 29.3958 29.4356 29.3871C29.6032 29.3696 29.7333 29.3345 29.8236 29.2552C29.9164 29.1737 29.955 29.0567 29.9692 28.9088C29.9832 28.7617 29.9744 28.5697 29.9599 28.3248C29.9446 28.0665 29.944 27.9203 29.9664 27.8218C29.9868 27.7326 30.0264 27.6817 30.1096 27.6172L30.112 27.6152C30.1596 27.575 30.2456 27.5323 30.3485 27.4981C30.4501 27.4644 30.5612 27.4415 30.6544 27.436C30.9336 27.4194 31.1558 27.3182 31.3675 27.1139C31.4453 27.0419 31.5256 26.9825 31.5896 26.945C31.622 26.9261 31.6482 26.9137 31.6662 26.9079C31.67 26.9144 31.6748 26.9232 31.6799 26.9344C31.6946 26.9662 31.7113 27.0115 31.7287 27.0676C31.7635 27.1796 31.7997 27.3288 31.8289 27.4864C31.8594 27.6539 31.903 27.8261 31.9501 27.9691C31.9737 28.0406 31.9987 28.1062 32.0236 28.1604C32.0478 28.213 32.0745 28.2605 32.1033 28.2925C32.1397 28.333 32.1785 28.3966 32.2087 28.4659C32.239 28.5355 32.2579 28.6041 32.2608 28.653C32.2654 28.7299 32.3047 28.8255 32.3553 28.9146C32.4068 29.0054 32.4758 29.0996 32.5496 29.1756L32.7975 29.4434C32.812 29.459 32.8331 29.4672 32.8544 29.4657L34.4516 29.341L34.4519 29.3414C34.8902 29.3104 35.3082 29.2678 35.6288 29.226C35.7889 29.2052 35.9256 29.1842 36.0288 29.1649C36.0802 29.1553 36.1245 29.1461 36.1593 29.1371C36.1915 29.1288 36.2234 29.1188 36.2448 29.1066L36.2475 29.1048C36.3999 29.0072 36.4713 28.7941 36.4889 28.5092C36.5045 28.2548 36.4787 27.9239 36.412 27.5194L36.3811 27.3415L36.3083 26.9271C36.231 26.4667 36.1445 25.8972 36.0899 25.4848C36.0327 25.0231 35.997 24.7633 35.9334 24.5874C35.8665 24.4026 35.7688 24.3091 35.6079 24.1758C35.4458 24.0364 35.3455 23.9507 35.177 23.9268C35.096 23.9154 35.0012 23.9185 34.8797 23.931C34.7578 23.9435 34.6033 23.966 34.4015 23.9955C34.1396 24.0336 33.9441 24.0523 33.8109 24.0501C33.7442 24.049 33.6973 24.0423 33.6674 24.0329C33.6373 24.0234 33.6366 24.0152 33.6383 24.0192C33.6383 24.0162 33.6395 24.0064 33.6503 23.9862C33.6655 23.9577 33.6946 23.9196 33.7413 23.8712C33.8344 23.7746 33.9855 23.6488 34.1951 23.4905L34.1955 23.4901C34.6361 23.1538 34.868 23.0487 35.1482 23.0322C35.3685 23.0191 35.7739 22.9227 36.0549 22.8138L36.0559 22.8135C36.171 22.7665 36.2622 22.7286 36.332 22.6929C36.4014 22.6574 36.4569 22.6207 36.4961 22.5731C36.5369 22.5235 36.5555 22.4679 36.5627 22.4039C36.5696 22.3425 36.5664 22.269 36.5613 22.1821V22.1807L36.5507 22.0901C36.4828 21.6456 36.1876 21.3188 35.7336 21.2534H35.7329C35.6176 21.2383 35.5394 21.2127 35.4898 21.1782C35.4442 21.1465 35.419 21.1047 35.4129 21.0423C35.4064 20.9753 35.4218 20.8832 35.4668 20.757C35.5115 20.6317 35.5832 20.4783 35.6824 20.2921C35.8932 19.8924 35.9996 19.5605 35.9921 19.2731C35.9844 18.9813 35.8595 18.7437 35.6295 18.5343L35.6288 18.5336L35.543 18.4618C35.458 18.396 35.3743 18.3468 35.2872 18.3135C35.1705 18.269 35.0504 18.2545 34.9168 18.2624C34.8409 18.2669 34.7764 18.273 34.7232 18.285C34.6694 18.2972 34.6218 18.3162 34.5831 18.3492C34.5065 18.4147 34.4843 18.5185 34.4674 18.6459C34.449 18.7499 34.4257 18.8136 34.3973 18.8515C34.3727 18.8844 34.3411 18.9019 34.2889 18.9051C34.2416 18.9078 34.1935 18.9019 34.1553 18.8906C34.1365 18.8851 34.121 18.8785 34.11 18.8721C34.1047 18.869 34.1006 18.8658 34.098 18.8635C34.0967 18.8625 34.0955 18.8614 34.0949 18.8608L34.0942 18.8597C34.0773 18.8351 34.0507 18.8158 34.0269 18.8014C34.0013 18.7859 33.97 18.771 33.9369 18.7574C33.8706 18.7303 33.7893 18.7059 33.709 18.6895L33.7073 18.6891L33.6256 18.6723C33.4438 18.6302 33.3206 18.565 33.2452 18.4821C33.1615 18.3899 33.1272 18.2655 33.1497 18.0972V18.0962C33.1666 17.9529 33.1679 17.8441 33.1016 17.7436C33.0699 17.6955 33.025 17.6529 32.9684 17.6097C32.9119 17.5665 32.8397 17.5197 32.7508 17.4645L32.7501 17.4638L32.5894 17.369C32.541 17.3415 32.4971 17.3178 32.4572 17.2983C32.3777 17.2594 32.3081 17.2342 32.2426 17.2266ZM28.1688 23.6161C27.9847 23.5967 27.8032 23.636 27.5539 23.7167C27.44 23.7523 27.2071 23.7959 26.9802 23.8266L26.7594 23.8523C26.4493 23.8759 26.2014 23.9442 26.0519 24.0484C25.9763 24.101 25.9197 24.1674 25.8994 24.2475C25.8788 24.3295 25.8995 24.4128 25.9519 24.4906L25.9526 24.4916C26.0668 24.6554 26.2661 24.8025 26.4927 24.9122C26.7198 25.022 26.9821 25.0979 27.2298 25.1151C27.4908 25.1396 27.8179 25.2097 27.9727 25.285L27.9751 25.2861C28.3003 25.4305 28.665 25.3725 28.9334 25.2033C29.1844 25.045 29.3633 24.7806 29.3361 24.4796L29.3278 24.4188C29.2891 24.1739 29.121 24.0266 28.7761 23.8445C28.5306 23.7123 28.352 23.6355 28.1688 23.6161ZM28.1897 21.7464C27.9787 21.7421 27.7161 21.7524 27.3867 21.7718C26.9442 21.7979 26.6367 21.8263 26.4189 21.8649C26.2024 21.9032 26.0649 21.9535 25.9691 22.0296C25.8259 22.1415 25.7332 22.2578 25.7504 22.4083C25.7586 22.4795 25.791 22.5503 25.84 22.6233C25.8892 22.6964 25.9583 22.7763 26.0453 22.8656C26.1648 22.991 26.2615 23.0738 26.3801 23.119C26.4982 23.164 26.6304 23.1686 26.8127 23.1578C27.0147 23.1459 27.1728 23.1515 27.3489 23.187C27.5263 23.2228 27.7251 23.2897 28.0081 23.4036L28.0102 23.4043C28.0831 23.431 28.1718 23.4353 28.2584 23.4273C28.346 23.4192 28.4381 23.398 28.5214 23.3683C28.6042 23.3387 28.6828 23.2995 28.7411 23.2536C28.7938 23.2121 28.846 23.1515 28.8455 23.0764C28.8484 23.0728 28.8549 23.0665 28.8661 23.0596C28.8896 23.0452 28.9256 23.0331 28.9649 23.0308C29.0403 23.0263 29.1083 23.0123 29.163 22.9824C29.2201 22.9511 29.2604 22.9037 29.2805 22.8409C29.2996 22.7808 29.2988 22.7112 29.2853 22.6353C29.2716 22.5588 29.244 22.4702 29.2046 22.3695V22.3689L29.1613 22.2665C29.1172 22.1689 29.0692 22.085 29.0099 22.0152C28.9293 21.9203 28.8297 21.8542 28.6961 21.8116C28.5646 21.7698 28.4001 21.7508 28.1897 21.7464ZM28.188 19.6789L28.1018 19.6875C27.8854 19.7153 27.5704 19.7984 27.351 19.8832C27.1115 19.9757 26.5902 20.0964 26.184 20.1304H26.182C25.8916 20.1627 25.6904 20.195 25.5496 20.2392C25.4069 20.284 25.3172 20.3439 25.2591 20.4356L25.2244 20.4943C25.15 20.6322 25.1251 20.7778 25.1537 20.9211C25.1822 21.0636 25.2623 21.1978 25.3875 21.3162L25.4438 21.366L25.7085 21.5919C25.7234 21.6046 25.7434 21.6103 25.7628 21.608L27.5865 21.3894L27.5862 21.389C28.1215 21.3272 28.5255 21.2809 28.8252 21.2311C29.1224 21.1817 29.3289 21.1276 29.4624 21.0457C29.531 21.0036 29.5828 20.9528 29.6173 20.8902C29.6514 20.8279 29.666 20.7587 29.6688 20.6835C29.6741 20.5373 29.6339 20.3514 29.5857 20.1215C29.5807 20.0967 29.5681 20.0763 29.5555 20.061C29.5424 20.0454 29.5261 20.0309 29.5091 20.0181C29.475 19.9926 29.4302 19.9674 29.38 19.9436C29.279 19.8958 29.1451 19.8481 29.0027 19.8066C28.7213 19.7248 28.3877 19.6623 28.188 19.6789ZM27.1254 17.5318H27.1237C27.0446 17.5464 26.808 17.5808 26.6056 17.6131H26.6049C26.516 17.6284 26.4425 17.6419 26.3852 17.6598C26.3276 17.6779 26.2768 17.7034 26.2407 17.7481C26.2044 17.7929 26.1907 17.8479 26.1857 17.9081C26.1809 17.9676 26.1839 18.0419 26.1892 18.1316C26.1955 18.2383 26.2183 18.3536 26.2493 18.4536C26.2795 18.5511 26.3206 18.644 26.3684 18.6987L26.3694 18.6998C26.5811 18.9332 26.923 19.1109 27.2796 19.2086C27.6362 19.3062 28.0204 19.3275 28.3198 19.235L28.3209 19.2347C28.3767 19.2165 28.4284 19.1982 28.4685 19.1725C28.5127 19.1441 28.5445 19.1058 28.5595 19.0513C28.5731 19.0017 28.5717 18.9429 28.5636 18.8752C28.5554 18.8064 28.5391 18.7194 28.5176 18.6102L28.5173 18.6084L28.4943 18.5126C28.4696 18.4166 28.4403 18.3214 28.4101 18.2387C28.3901 18.1836 28.369 18.133 28.3487 18.0907C28.329 18.0496 28.3076 18.0118 28.2855 17.9856L28.2848 17.9846L28.2429 17.9445C28.1949 17.904 28.1292 17.863 28.0582 17.8246C27.9611 17.7721 27.8448 17.7196 27.728 17.6739C27.6111 17.6282 27.4917 17.5885 27.3881 17.5623C27.2883 17.5371 27.1912 17.5213 27.1254 17.5318ZM10.8986 9.84375C10.4168 9.84375 10.1955 10.0195 10.1955 10.5469V10.7227C10.1955 11.25 10.5103 11.4257 10.8986 11.4258H19.6877C20.0759 11.4257 20.3908 11.2499 20.3908 10.7227V10.5469C20.3908 10.0196 20.0759 9.84388 19.6877 9.84375H10.8986ZM25.3127 9.84375C24.8308 9.84375 24.6096 10.0195 24.6096 10.5469V10.7227C24.6096 11.25 24.9244 11.4257 25.3127 11.4258H34.1017C34.4899 11.4257 34.8049 11.2499 34.8049 10.7227V10.5469C34.8049 10.0196 34.4899 9.84388 34.1017 9.84375H25.3127Z" fill="currentColor"/>
</svg>
